HIERARCHY
ROOT joint_Root
{
	OFFSET 0.0 0.0 0.0
	CHANNELS 6 Xposition Yposition Zposition Zrotation Xrotation Yrotation 
	JOINT Hips
	{
		OFFSET -0.726466 93.3139 -2.00062
		CHANNELS 6 Xposition Yposition Zposition Zrotation Xrotation Yrotation 
		JOINT Spine
		{
			OFFSET 15.7357 0.0 0.0
			CHANNELS 6 Xposition Yposition Zposition Zrotation Xrotation Yrotation 
			JOINT Chest
			{
				OFFSET 8.98455 -0.406207 0.0
				CHANNELS 6 Xposition Yposition Zposition Zrotation Xrotation Yrotation 
				JOINT Neck
				{
					OFFSET 16.3773 0.0 0.0
					CHANNELS 6 Xposition Yposition Zposition Zrotation Xrotation Yrotation 
					JOINT Head
					{
						OFFSET 6.45672 0.0 0.0
						CHANNELS 6 Xposition Yposition Zposition Zrotation Xrotation Yrotation 
						End Site
						{
							OFFSET 0.0 0.0 0.0
						}
					}
				}
				JOINT Shoulder_L
				{
					OFFSET 12.9942 -0.242716 4.98039
					CHANNELS 6 Xposition Yposition Zposition Zrotation Xrotation Yrotation 
					JOINT UpperArm_L
					{
						OFFSET 5.34809 0.0 0.0
						CHANNELS 6 Xposition Yposition Zposition Zrotation Xrotation Yrotation 
						JOINT LowerArm_L
						{
							OFFSET 24.3286 1.87007e-05 0.0
							CHANNELS 6 Xposition Yposition Zposition Zrotation Xrotation Yrotation 
							JOINT Hand_L
							{
								OFFSET 22.2916 0.0 0.0
								CHANNELS 6 Xposition Yposition Zposition Zrotation Xrotation Yrotation 
								End Site
								{
									OFFSET 0.0 0.0 0.0
								}
							}
						}
					}
				}
				JOINT Shoulder_R
				{
					OFFSET 12.9945 -0.242716 -4.98039
					CHANNELS 6 Xposition Yposition Zposition Zrotation Xrotation Yrotation 
					JOINT UpperArm_R
					{
						OFFSET -5.34813 0.0 0.0
						CHANNELS 6 Xposition Yposition Zposition Zrotation Xrotation Yrotation 
						JOINT LowerArm_R
						{
							OFFSET -24.3289 0.000322201 0.0
							CHANNELS 6 Xposition Yposition Zposition Zrotation Xrotation Yrotation 
							JOINT Hand_R
							{
								OFFSET -22.2915 -0.000108084 0.0
								CHANNELS 6 Xposition Yposition Zposition Zrotation Xrotation Yrotation 
								End Site
								{
									OFFSET 0.0 0.0 0.0
								}
							}
						}
					}
				}
			}
		}
		JOINT UpperLeg_L
		{
			OFFSET -2.19248 -6.46944 0.0
			CHANNELS 6 Xposition Yposition Zposition Zrotation Xrotation Yrotation 
			JOINT LowerLeg_L
			{
				OFFSET 39.0811 0.0 -1.23785e-05
				CHANNELS 6 Xposition Yposition Zposition Zrotation Xrotation Yrotation 
				JOINT Foot_L
				{
					OFFSET 40.9854 0.0 -1.26872e-05
					CHANNELS 6 Xposition Yposition Zposition Zrotation Xrotation Yrotation 
					JOINT Toes_L
					{
						OFFSET 11.7543 0.0 0.0
						CHANNELS 6 Xposition Yposition Zposition Zrotation Xrotation Yrotation 
						End Site
						{
							OFFSET 0.0 0.0 0.0
						}
					}
				}
			}
		}
		JOINT UpperLeg_R
		{
			OFFSET -2.19251 6.46944 0.0
			CHANNELS 6 Xposition Yposition Zposition Zrotation Xrotation Yrotation 
			JOINT LowerLeg_R
			{
				OFFSET -39.0811 -0.00228153 -0.0401928
				CHANNELS 6 Xposition Yposition Zposition Zrotation Xrotation Yrotation 
				JOINT Foot_R
				{
					OFFSET -40.9854 0.0 0.0
					CHANNELS 6 Xposition Yposition Zposition Zrotation Xrotation Yrotation 
					JOINT Toes_R
					{
						OFFSET -11.7543 0.0 0.0
						CHANNELS 6 Xposition Yposition Zposition Zrotation Xrotation Yrotation 
						End Site
						{
							OFFSET 0.0 0.0 0.0
						}
					}
				}
			}
		}
	}
}
MOTION
Frames:	7
Frame Time:	0.0333333
0.000000 0.000000 0.000000 0.000000 0.000000 -0.000000 -0.130602 92.220200 -0.224313 88.144300 -0.401682 5.652550 15.735700 0.000005 -0.000001 81.031000 86.065400 -80.438800 8.984550 -0.406207 -0.000000 0.013975 -1.266560 1.183940 16.377300 -0.000001 -0.000001 4.237420 -1.933270 -0.169363 6.456720 -0.000001 -0.000000 8.216410 -2.437630 -0.352623 12.994200 -0.242716 4.980390 -86.897800 -9.521820 -71.860100 5.348090 -0.000007 -0.000001 -85.333300 -28.169100 -95.660500 24.328600 0.000019 0.000005 16.912800 2.342250 -82.345000 22.291600 -0.000001 0.000005 22.478800 5.593960 -10.987600 12.994500 -0.242716 -4.980390 91.115100 -3.817510 -73.703700 -5.348130 -0.000001 -0.000004 -77.668800 -25.635600 -101.119000 -24.328900 0.000322 -0.000009 17.745200 3.508190 -79.176100 -22.291500 -0.000108 -0.000004 22.822100 5.401140 -2.974420 -2.192480 -6.469440 -0.000000 -175.412000 -8.863620 -1.021780 39.081100 -0.000007 -0.000012 -0.107532 0.249517 23.314300 40.985400 -0.000006 -0.000013 0.384852 4.492990 -66.802200 11.754300 -0.000000 0.000003 -0.000049 -0.000555 -16.599100 -2.192510 6.469440 -0.000001 178.722000 15.251200 -178.141000 -39.081100 -0.002282 -0.040193 -0.042223 0.126837 19.752100 -40.985400 0.000008 0.000006 2.881160 7.703940 -66.213700 -11.754300 -0.000006 -0.000006 -0.008098 -0.088830 -20.190400
0.000000 0.000000 0.000000 0.000000 0.000000 -0.000000 -0.147970 92.221100 -0.223006 88.143500 -0.336533 5.653420 15.735700 0.000005 -0.000001 80.912900 86.049600 -80.324200 8.984550 -0.406207 -0.000000 0.042564 -1.287150 1.177070 16.377300 -0.000001 -0.000001 4.284280 -1.964870 -0.130523 6.456720 -0.000001 -0.000000 8.147590 -2.443970 -0.342932 12.994200 -0.242716 4.980390 -86.889900 -9.499220 -71.776800 5.348090 -0.000007 -0.000001 -85.283200 -28.136800 -95.838000 24.328600 0.000019 0.000005 16.851800 2.321780 -82.382300 22.291600 -0.000001 0.000005 22.491700 5.594990 -11.047300 12.994500 -0.242716 -4.980390 91.117500 -3.796650 -73.585300 -5.348130 -0.000001 -0.000004 -77.423200 -25.756700 -101.408000 -24.328900 0.000322 -0.000009 17.785000 3.557450 -79.053600 -22.291500 -0.000108 -0.000004 22.765000 5.402050 -3.004440 -2.192480 -6.469440 -0.000000 -175.423000 -8.721910 -1.022670 39.081100 -0.000007 -0.000012 -0.106850 0.248037 23.305500 40.985400 -0.000006 -0.000013 0.357752 4.414120 -66.797100 11.754300 -0.000000 0.000003 -0.000052 -0.000588 -16.600400 -2.192510 6.469440 -0.000001 178.738000 15.294100 -178.133000 -39.081100 -0.002282 -0.040193 -0.041122 0.123741 19.756700 -40.985400 0.000008 0.000006 2.984390 7.666730 -66.242700 -11.754300 -0.000006 -0.000006 -0.008277 -0.090278 -20.249500
0.000000 0.000000 0.000000 0.000000 0.000000 -0.000000 -0.169099 92.223000 -0.201235 88.144500 -0.282560 5.652570 15.735700 0.000005 -0.000001 80.949300 86.028700 -80.362100 8.984550 -0.406207 -0.000000 0.084673 -1.288460 1.174500 16.377300 -0.000001 -0.000001 4.312140 -1.963540 -0.111641 6.456720 -0.000001 -0.000000 8.167810 -2.450200 -0.364775 12.994200 -0.242716 4.980390 -86.894600 -9.435770 -71.689300 5.348090 -0.000007 -0.000001 -85.054100 -28.155000 -95.728700 24.328600 0.000019 0.000005 16.804100 2.241620 -82.620300 22.291600 -0.000001 0.000005 22.454000 5.592740 -10.917800 12.994500 -0.242716 -4.980390 91.111500 -3.739700 -73.433900 -5.348130 -0.000001 -0.000004 -76.979100 -25.951300 -101.505000 -24.328900 0.000322 -0.000009 17.604800 3.510270 -79.080000 -22.291500 -0.000108 -0.000004 22.786800 5.398460 -2.887700 -2.192480 -6.469440 -0.000000 -175.410000 -8.681460 -1.006020 39.081100 -0.000007 -0.000012 -0.106840 0.248311 23.280700 40.985400 -0.000006 -0.000013 0.345906 4.441950 -66.791500 11.754300 -0.000000 0.000003 -0.000047 -0.000539 -16.598500 -2.192510 6.469440 -0.000001 178.757000 15.319000 -178.117000 -39.081100 -0.002282 -0.040193 -0.038805 0.117339 19.749200 -40.985400 0.000008 0.000006 3.086320 7.627700 -66.269900 -11.754300 -0.000006 -0.000006 -0.008205 -0.089700 -20.226000
0.000000 0.000000 0.000000 0.000000 0.000000 -0.000000 -0.182501 92.220600 -0.186311 88.149800 -0.235489 5.669400 15.735700 0.000005 -0.000001 80.990900 86.007800 -80.415200 8.984550 -0.406207 -0.000000 0.126686 -1.288300 1.152240 16.377300 -0.000001 -0.000001 4.344100 -1.965940 -0.079274 6.456720 -0.000001 -0.000000 8.210190 -2.406260 -0.365162 12.994200 -0.242716 4.980390 -86.906300 -9.315440 -71.535700 5.348090 -0.000007 -0.000001 -84.346100 -28.233000 -94.994800 24.328600 0.000019 0.000005 16.316000 2.022690 -83.124900 22.291600 -0.000001 0.000005 22.700300 5.594050 -10.993100 12.994500 -0.242716 -4.980390 91.096100 -3.632900 -73.197600 -5.348130 -0.000001 -0.000004 -76.267100 -26.126500 -101.072000 -24.328900 0.000322 -0.000009 17.212600 3.347360 -79.327800 -22.291500 -0.000108 -0.000004 22.855000 5.400760 -2.962230 -2.192480 -6.469440 -0.000000 -175.387000 -8.718790 -0.986320 39.081100 -0.000007 -0.000012 -0.108356 0.251775 23.285700 40.985400 -0.000006 -0.000013 0.350847 4.529370 -66.798900 11.754300 -0.000000 0.000003 -0.000047 -0.000539 -16.598500 -2.192510 6.469440 -0.000001 178.759000 15.343400 -178.092000 -39.081100 -0.002282 -0.040193 -0.037735 0.114228 19.770100 -40.985400 0.000008 0.000006 3.166740 7.595220 -66.312400 -11.754300 -0.000006 -0.000006 -0.007956 -0.087673 -20.143200
0.000000 0.000000 0.000000 0.000000 0.000000 -0.000000 -0.211527 92.220100 -0.193442 88.153500 -0.194534 5.619290 15.735700 0.000005 -0.000001 80.868100 85.991400 -80.303700 8.984550 -0.406207 -0.000000 0.156470 -1.309510 1.129870 16.377300 -0.000001 -0.000001 4.263040 -1.996910 -0.004628 6.456720 -0.000001 -0.000000 8.240670 -2.327860 -0.405500 12.994200 -0.242716 4.980390 -86.945900 -9.023490 -71.212400 5.348090 -0.000007 -0.000001 -82.596000 -28.396900 -93.161800 24.328600 0.000019 0.000005 15.189600 1.592200 -84.158000 22.291600 -0.000001 0.000005 23.426500 5.600310 -11.359200 12.994500 -0.242716 -4.980390 91.062400 -3.437680 -72.814400 -5.348130 -0.000001 -0.000004 -74.973500 -26.242900 -99.722500 -24.328900 0.000322 -0.000009 16.380700 2.917940 -80.177100 -22.291500 -0.000108 -0.000004 22.910700 5.389360 -2.595820 -2.192480 -6.469440 -0.000000 -175.399000 -8.619660 -1.057800 39.081100 -0.000007 -0.000012 -0.108121 0.251126 23.294100 40.985400 -0.000006 -0.000013 0.323434 4.473760 -66.788900 11.754300 -0.000000 0.000003 -0.000053 -0.000598 -16.600800 -2.192510 6.469440 -0.000001 178.794000 15.353700 -178.156000 -39.081100 -0.002282 -0.040193 -0.036949 0.111892 19.794000 -40.985400 0.000008 0.000006 3.249390 7.555210 -66.339400 -11.754300 -0.000006 -0.000006 -0.008173 -0.089440 -20.215300
0.000000 0.000000 0.000000 0.000000 0.000000 -0.000000 -0.245742 92.220700 -0.195923 88.168000 -0.152195 5.581300 15.735700 0.000005 -0.000001 80.386300 85.957100 -79.855100 8.984550 -0.406207 -0.000000 0.212980 -1.384980 1.064260 16.377300 -0.000001 -0.000001 4.155570 -2.077950 0.080239 6.456720 -0.000001 -0.000000 8.212610 -2.243560 -0.377781 12.994200 -0.242716 4.980390 -87.017800 -8.560600 -70.710600 5.348090 -0.000007 -0.000001 -79.379700 -28.545300 -89.631900 24.328600 0.000019 0.000005 13.531300 0.908307 -86.234300 22.291600 -0.000001 0.000005 24.156000 5.611110 -12.028100 12.994500 -0.242716 -4.980390 90.948500 -2.958690 -72.215800 -5.348130 -0.000001 -0.000004 -72.758500 -25.966000 -96.941400 -24.328900 0.000322 -0.000009 14.546900 2.121810 -81.885100 -22.291500 -0.000108 -0.000004 22.819400 5.371400 -2.029200 -2.192480 -6.469440 -0.000000 -175.405000 -8.547350 -1.107920 39.081100 -0.000007 -0.000012 -0.109045 0.253387 23.284700 40.985400 -0.000006 -0.000013 0.287820 4.436750 -66.767700 11.754300 -0.000000 0.000003 -0.000047 -0.000537 -16.598400 -2.192510 6.469440 -0.000001 178.820000 15.363500 -178.200000 -39.081100 -0.002282 -0.040193 -0.037763 0.114172 19.791400 -40.985400 0.000008 0.000006 3.196640 7.504200 -66.326300 -11.754300 -0.000006 -0.000006 -0.007997 -0.088008 -20.156800
0.000000 0.000000 0.000000 0.000000 0.000000 -0.000000 -0.279431 92.220400 -0.194889 88.166700 -0.099003 5.634350 15.735700 0.000005 -0.000001 80.025500 85.912000 -79.511100 8.984550 -0.406207 -0.000000 0.293448 -1.449310 1.031810 16.377300 -0.000001 -0.000001 4.210440 -2.159130 0.193011 6.456720 -0.000001 -0.000000 8.038200 -2.247210 -0.434997 12.994200 -0.242716 4.980390 -87.173200 -7.998890 -70.463000 5.348090 -0.000007 -0.000001 -74.503800 -28.557500 -83.711300 24.328600 0.000019 0.000005 11.699300 0.020881 -89.904600 22.291600 -0.000001 0.000005 24.329700 5.614570 -12.255400 12.994500 -0.242716 -4.980390 90.782300 -2.338880 -71.499000 -5.348130 -0.000001 -0.000004 -69.480900 -25.127700 -92.249800 -24.328900 0.000322 -0.000009 11.426500 1.028260 -84.934300 -22.291500 -0.000108 -0.000004 22.465300 5.341790 -1.133820 -2.192480 -6.469440 -0.000000 -175.382000 -8.443650 -1.046610 39.081100 -0.000007 -0.000012 -0.109497 0.254562 23.274600 40.985400 -0.000006 -0.000013 0.262885 4.435440 -66.768200 11.754300 -0.000000 0.000003 -0.000059 -0.000653 -16.602800 -2.192510 6.469440 -0.000001 178.835000 15.390400 -178.139000 -39.081100 -0.002282 -0.040193 -0.035346 0.107411 19.798800 -40.985400 0.000008 0.000006 3.302620 7.484370 -66.359400 -11.754300 -0.000006 -0.000006 -0.007839 -0.086711 -20.103900
